# xmcd
#
# Track frame offsets:
#	150
#	18937
#	44213
#	68803
#	87553
#	118940
#	142827
#	173389
#	199452
#	229002
#	253264
#	279214
#
# Disc length: 4094 seconds
# Revision: 0
# Processed by: cddbd v1.5.2PL0 Copyright (c) Steve Scherf et al.
# Submitted via: dBpowerAMP V12.0
#
DISCID=ab0ffc0c
DTITLE=Various Artist - Boogie Times Presents The Great Collector's Funky Music 80ies Vol. 8
DYEAR=2008
DGENRE=Funk
TTITLE0=Donna Washington - You Can't Hid From The Boogie
TTITLE1=Linda Clifford - Build A Fire
TTITLE2=LA Famille - Dancer
TTITLE3=Pulse - She's Hot
TTITLE4=McKenzie and Gardiner - From Time
TTITLE5=Pretty Boys - I've Got My Eyes On You
TTITLE6=May Ervin - What Is It
TTITLE7=Lisa O - One And Only
TTITLE8=Coalition - Where Do You Go From Me
TTITLE9=9th Creation - Love Crime (Extended Version)
TTITLE10=The Gents - For You My Baby Love
TTITLE11=Chris Beckers Band - Keep On Dancing
EXTD=
EXTT0=
EXTT1=
EXTT2=
EXTT3=
EXTT4=
EXTT5=
EXTT6=
EXTT7=
EXTT8=
EXTT9=
EXTT10=
EXTT11=
PLAYORDER=
